<?xml version="1.0" encoding="UTF-8"?>
<svg id="Layer_1" data-name="Layer 1" xmlns="http://www.w3.org/2000/svg" viewBox="0 0 150 150">
  <defs>
    <style>
      .cls-1 {
        fill: #eb5b00;
      }

      .cls-2 {
        fill: #fff;
      }

      .cls-3 {
        fill: #0e0e0e;
      }
    </style>
  </defs>
  <g id="Generative_Object" data-name="Generative Object">
    <path class="cls-1" d="M132.75,70.74c-.44-.31-4.4-4.67-4.49-4.99-.35-1.25.5-2.66,0-4.04-.48-1.35-5.5-4.59-5.51-5.2l2.48-8.43c-2.36.07-4.08,1.97-5.95,3.08-.36-1.07-2.42-4.94-3.6-4.97-1.96-.04-5.16,5.92-5.54,7.66-.29,1.29-.13,3.92-.42,4.8-.08.25-3.09,3.81-3.41,4.11-7.2,6.77-29.23,6.06-39.27,8.4-5.7,1.33-10.79,5.03-16.55,4.46-6.36-.63-14.4-4.78-17.39-10.61-3.65-7.11-.7-14.8-4.83-21.45-2.65-4.27-7.4-7.12-12.44-7.42,2.05,3.54,2.18,5.78,1.48,9.8-1.73,9.8-4.86,19.34,1.21,28.61,7.53,11.49,21.51,9.78,33,6.6-3.7,3.95-2.47,9.65-8.14,11.71-1.85.67-2.51.26-3.94.49-1.88.3-4.4,5.6-5.98,7.28-2.16,2.29-5.59,3.15-5.67,6.75-.08,3.35,2.32,2.77,4.42,1.59,2.67-1.51,6.83-6.9,8.88-7.82.46-.21,6.16-.9,6.39-.68-.22,1.1-1.04,2.55-1.65,3.6-.65,1.1-3.89,4.74-4.03,5.17-.47,1.5.07,5.09,2.28,4.56,2.78-.67,6.96-9.52,8.65-11.97.58-.54,5.63-.6,6.98-.85,6.11-1.11,8.31-4.52,11.5-9.44,8.4-.13,16.83.26,25.17-.82l2.94,5.78c-.32,1.23-7.35-.4-7.08,3.67.3,4.38,8,.4,9.61.12.7-.12,2.01.29,3.07.05,1.5-.33,7.05-4.86,7.48-6.29.76-2.57-2.15-6.39-2.8-8.91,3.9-2.18,6.58-5.09,8.99-8.77.22-.34.96-2.19,1.09-2.29,1.31-1.03,6.17,1.85,7.74,2.16,2.64.51,7.04-.41,7.63-3.52.34-1.82-1.34-1.33-2.27-1.97ZM105.48,94.54c-.35-.02-1.61-3.48-1.35-3.56.6,1.18,3.31,2.51,1.35,3.56Z"/>
    <g>
      <path class="cls-1" d="M116.77,48.58c-.33.15-.58.84-.77,1.04-2.51,2.64-3.74,4.81-3.96,8.66l.84-.95,2.41,4.82c-.09.26-.04.67-.12.96-.65-.04-1.18-.13-1.8.19l2.13,1.8c-1.53-.88-3.55-.73-5.23-.23,1.09.59,2.38.77,3.17,1.84-1.39,0-3.09-.16-4.02,1.13.15.23,4.81.07,5.07,1.51l-2.74.56c.79.27,1.73.33,2.52.55-5.35,1.08-10.89,2.52-11.75,8.84l3.09-2.13.37.29c-1.68,2.7-3.13,6.05-3.86,9.15-.23.98-.34,1.3-.14,2.49.65,3.9,5.01,8.61-.31,10.56-1.44.24-1.51-1.36-1.8-2.48-1.14-4.36-2.35-4.89-3.98-8.49-.8-1.77-.92-4.41-1.66-6.27-.03-.23-.11-.92-.28-1-9.14.43-20.73,1.98-27.78,8.35-.79.71-1.43,1.81-2.07,2.42-8.48,8-8.25,6.12-19.33,7.35.05-2.42,3.05-4.49,1.81-6.9,2.2-1.67,2.11-3.87,3.16-6,1.46-2.97,3.14-5.64,5.28-8.17-9.75,3.55-22.06,6.87-31.22.08-4.92-3.64-7.02-9.09-7.48-14.98,1.74-.19,2.09-2.44,2.09-3.87,0-.41-.94-3.17-.04-3,.2.04,1.74,3.09,2.81,2.85l.47-5.85c1.05,2.88,5.11,4.48,3.42-.23l2.6,1.85c.49-1.24.5-2.51.22-3.77l1.7,2.63c1.17,10.4,3.36,16.91,14.03,20.95,11.31,4.29,13.49-.3,23.29-2.67,10.08-2.44,32.07-1.69,39.43-8.38.43-.39,4.37-4.64,4.48-4.95.08-.23-.17-1.28-.14-1.47.44-3.04.87-5.69,2.78-8.23,1.34-1.79,1.94-2.76,3.33-.81Z"/>
      <path class="cls-2" d="M94.22,82.39c.3,2.42-.15,5.2,1.62,7.31l-.2.3c-10.4,1.72-21.48-.8-31.56,2.15.64-.6,1.28-1.7,2.07-2.42,7.05-6.37,18.64-7.92,27.78-8.35.18.09.25.78.28,1Z"/>
      <path class="cls-2" d="M29.56,54.14l-1.7-2.63c.28,1.26.27,2.53-.22,3.77l-2.6-1.85c1.69,4.71-2.37,3.11-3.42.23l-.47,5.85c-1.07.24-2.61-2.81-2.81-2.85-.9-.18.04,2.59.04,3,0,1.43-.35,3.68-2.09,3.87-.66-8.53,2.33-13.53,2.69-20.78.08-1.73-.54-3.35-.76-5.03,5.44,1.23,9.85,5.85,11,11.28.37,1.75.15,3.44.35,5.14Z"/>
      <path class="cls-2" d="M111.85,73.05c2.22.12,4.45.07,6.65.49.52.28-1.73,3.88-2.07,4.36-2.71,3.86-8.25,7.63-12.81,8.87-.31.08-1.85.66-1.51-.18.74-3.1,2.18-6.45,3.86-9.15l-.37-.29-3.09,2.13c.86-6.32,6.4-7.76,11.75-8.84.26.07,1.58.39,1.55.59-1.72.33-3.34,1.04-4.77,2.01.02.11.67,0,.81.02Z"/>
      <path class="cls-2" d="M131.76,72.89c.08.05.56,1.48.93,1.65-3.13,1.71-6.08.81-8.26-1.89-.37.89,1.26,1.49,1.34,2.27-4.02-2.43-9.43-2.95-13.93-1.86-.14,0-.79.1-.81-.02,1.43-.97,3.05-1.68,4.77-2.01.03-.2-1.29-.52-1.55-.59-.79-.22-1.73-.28-2.52-.55l2.74-.56c-.26-1.43-4.93-1.28-5.07-1.51.93-1.29,2.63-1.13,4.02-1.13-.79-1.07-2.08-1.25-3.17-1.84,1.68-.5,3.7-.65,5.23.23l-2.13-1.8c.63-.32,1.15-.22,1.8-.19.46.02,1.16.09,1.59.19.39.09,1.3.63,1.58,1l-.34-1.17c5.02,1.94,5.81,7.11,11.16,9.28.59.24,2.32.32,2.61.48Z"/>
      <path class="cls-2" d="M46.56,92.6c1.24,2.41-1.76,4.48-1.81,6.9-1.2.13-3.52.21-4.54.74-.85.45-5.55,5.51-6,5.42-2.37-3.05.9-5.22,2.61-7.53.3-.41.71-1.83,1.09-2.29,1.44-1.78,2.42-.85,4.29-1.34,1.22-.32,3.35-1.14,4.35-1.9Z"/>
      <path class="cls-1" d="M118.83,56.92c-.25,1.98-1.23,4.56-2.07,6.38-.43-.1-1.14-.17-1.59-.19.08-.29.03-.69.12-.96.44-1.27,2.63-4.66,2.34-5.94-1.03.62-.19-.85-.18-1.15.03-1.9-.4-3.84-1.44-5.43.19-.2.44-.89.77-1.04,1.51,2.11,2.39,5.76,2.06,8.34Z"/>
      <path class="cls-2" d="M101.66,99.63c-1.63.6-6.2,1.16-7.74.51-.33-.14-.57-1.12-.39-1.42.57-.97,5.23-.76,6.34-1.57.29,1.13.36,2.73,1.8,2.48Z"/>
      <path class="cls-2" d="M115.28,62.15l-2.41-4.82-.84.95c.22-3.85,1.45-6.02,3.96-8.66,1.04,1.6,1.47,3.54,1.44,5.43,0,.31-.84,1.77.18,1.15.29,1.28-1.9,4.67-2.34,5.94Z"/>
      <g>
        <path class="cls-1" d="M131.76,72.89c-.29-.16-2.02-.24-2.61-.48-5.35-2.17-6.14-7.34-11.16-9.28l.34,1.17c-.27-.37-1.18-.91-1.58-1,.84-1.82,1.82-4.4,2.07-6.38,2.27-.75.46-3.88.73-4.68.13-.38,4.13-3.29,4.48-2.93-.14.87-1.48,6.7-1.74,6.99-.09.1-2.09-.07-1.87.74.1.37,1.66.55,2.08.82.49.31,4.45,3.85,4.58,4.2.5,1.29-.32,2.65-.15,3.86.14,1.02,5.23,5.58,5.26,5.98.01.19-.45.72-.44,1Z"/>
        <path class="cls-3" d="M123.65,63.93c.98.53,1.31,1.79,1.1,1.94-.32.23-2.4-1.79-2.17-2.15.11-.17.72.02,1.07.21Z"/>
      </g>
    </g>
    <path class="cls-2" d="M48.27,101.06c-.77,1.61-2.42,5.12-3.97,6.1-.68.55-.08,1.81.03,2.49.03.1.44,2.16.29,2.16,1.49,0,3.56-3.78,4.13-5.13.63-1.48,2.36-4.02,3.33-5.06"/>
    <path class="cls-2" d="M106.39,95.29c.53.22.65.31,1.33.05.42-.14.94-.21,1.31.03.41.21.89.53.6.95-.89.87-2.33,1.99-3.27,2.69-.08.08-.04-.07-.04-.38,0-.49.05-.74.02-1.24-.09-.81-.46-1.67-.67-2.44l.72.35Z"/>
  </g>
</svg>