<svg width="1728" height="1117" viewBox="0 0 1728 1117" fill="none" xmlns="http://www.w3.org/2000/svg">
<rect width="1728" height="1117" fill="#FAFBFF"/>
<path d="M153.469 223.6C153.627 223.458 153.797 223.38 153.936 223.349C154.046 223.324 154.205 223.311 154.461 223.399L217.243 244.956C217.487 245.04 217.606 245.144 217.68 245.233C217.772 245.341 217.857 245.502 217.898 245.704C217.939 245.905 217.923 246.086 217.881 246.222C217.846 246.332 217.778 246.474 217.586 246.647L169.449 289.833C169.257 290.005 169.109 290.058 168.995 290.08C168.856 290.108 168.674 290.104 168.478 290.042C168.282 289.979 168.131 289.877 168.033 289.774C167.954 289.69 167.862 289.561 167.805 289.31L153.161 224.565C153.101 224.301 153.132 224.145 153.168 224.038C153.214 223.903 153.31 223.743 153.469 223.6Z" stroke="#EADDFF" stroke-width="18"/>
<path d="M181.884 999.398C181.756 999.227 181.694 999.051 181.676 998.909C181.661 998.797 181.662 998.638 181.773 998.391L213.611 927.436C213.716 927.2 213.831 927.092 213.926 927.026C214.042 926.944 214.21 926.873 214.414 926.851C214.619 926.828 214.798 926.861 214.929 926.915C215.036 926.96 215.171 927.04 215.325 927.247L260.588 988.01C260.742 988.217 260.781 988.37 260.793 988.485C260.807 988.626 260.788 988.807 260.708 988.997C260.627 989.186 260.512 989.327 260.401 989.415C260.31 989.487 260.173 989.566 259.917 989.6L182.817 999.792C182.549 999.828 182.396 999.783 182.292 999.737C182.162 999.679 182.012 999.57 181.884 999.398Z" stroke="#EADDFF" stroke-width="18"/>
<path d="M444.941 585.726C444.824 585.905 444.681 586.024 444.555 586.09C444.455 586.142 444.305 586.196 444.035 586.178L360.452 580.488C360.195 580.471 360.053 580.4 359.958 580.335C359.841 580.254 359.717 580.121 359.625 579.937C359.533 579.753 359.502 579.574 359.507 579.432C359.512 579.317 359.541 579.162 359.682 578.946L404.19 510.53C404.331 510.313 404.46 510.224 404.564 510.173C404.692 510.111 404.868 510.067 405.074 510.076C405.279 510.085 405.451 510.145 405.572 510.22C405.671 510.28 405.792 510.381 405.913 510.609L444.987 584.714C445.113 584.953 445.125 585.112 445.118 585.225C445.109 585.367 445.057 585.547 444.941 585.726Z" stroke="#EADDFF" stroke-width="18"/>
<path d="M656.469 716.6C656.627 716.458 656.797 716.38 656.936 716.349C657.046 716.324 657.205 716.311 657.461 716.399L720.243 737.956C720.487 738.04 720.606 738.144 720.68 738.233C720.772 738.341 720.857 738.502 720.898 738.704C720.939 738.905 720.923 739.086 720.881 739.222C720.846 739.332 720.778 739.474 720.586 739.647L672.449 782.833C672.257 783.005 672.109 783.058 671.995 783.08C671.856 783.108 671.674 783.104 671.478 783.042C671.282 782.979 671.131 782.877 671.033 782.774C670.954 782.69 670.862 782.561 670.805 782.31L656.161 717.565C656.101 717.301 656.132 717.145 656.168 717.038C656.214 716.903 656.31 716.743 656.469 716.6Z" stroke="#EADDFF" stroke-width="18"/>
<path d="M597.898 168.529C597.937 168.319 598.024 168.154 598.115 168.045C598.188 167.958 598.306 167.851 598.562 167.765L681.91 139.776C682.155 139.694 682.313 139.705 682.426 139.729C682.565 139.76 682.73 139.834 682.885 139.969C683.04 140.104 683.138 140.258 683.187 140.391C683.227 140.5 683.259 140.654 683.212 140.908L667.47 225.107C667.423 225.361 667.337 225.493 667.261 225.579C667.167 225.686 667.02 225.794 666.826 225.864C666.633 225.933 666.452 225.944 666.311 225.922C666.197 225.904 666.046 225.857 665.848 225.692L598.241 169.481C598.033 169.308 597.962 169.166 597.926 169.059C597.88 168.924 597.858 168.739 597.898 168.529Z" stroke="#EADDFF" stroke-width="18"/>
<path d="M999.469 223.6C999.627 223.458 999.797 223.38 999.936 223.349C1000.05 223.324 1000.2 223.311 1000.46 223.399L1063.24 244.956C1063.49 245.04 1063.61 245.144 1063.68 245.233C1063.77 245.341 1063.86 245.502 1063.9 245.704C1063.94 245.905 1063.92 246.086 1063.88 246.222C1063.85 246.332 1063.78 246.474 1063.59 246.647L1015.45 289.833C1015.26 290.005 1015.11 290.058 1015 290.08C1014.86 290.108 1014.67 290.104 1014.48 290.042C1014.28 289.979 1014.13 289.877 1014.03 289.774C1013.95 289.69 1013.86 289.561 1013.81 289.31L999.161 224.565C999.101 224.301 999.132 224.145 999.168 224.038C999.214 223.903 999.31 223.743 999.469 223.6Z" stroke="#EADDFF" stroke-width="18"/>
<path d="M1027.88 999.398C1027.76 999.227 1027.69 999.051 1027.68 998.909C1027.66 998.797 1027.66 998.638 1027.77 998.391L1059.61 927.436C1059.72 927.2 1059.83 927.092 1059.93 927.026C1060.04 926.944 1060.21 926.873 1060.41 926.851C1060.62 926.828 1060.8 926.861 1060.93 926.915C1061.04 926.96 1061.17 927.04 1061.32 927.247L1106.59 988.01C1106.74 988.217 1106.78 988.37 1106.79 988.485C1106.81 988.626 1106.79 988.807 1106.71 988.997C1106.63 989.186 1106.51 989.327 1106.4 989.415C1106.31 989.487 1106.17 989.566 1105.92 989.6L1028.82 999.792C1028.55 999.828 1028.4 999.783 1028.29 999.737C1028.16 999.679 1028.01 999.57 1027.88 999.398Z" stroke="#EADDFF" stroke-width="18"/>
<path d="M1290.94 585.726C1290.82 585.905 1290.68 586.024 1290.55 586.09C1290.45 586.142 1290.3 586.196 1290.03 586.178L1206.45 580.488C1206.19 580.471 1206.05 580.4 1205.96 580.335C1205.84 580.254 1205.72 580.121 1205.62 579.937C1205.53 579.753 1205.5 579.574 1205.51 579.432C1205.51 579.317 1205.54 579.162 1205.68 578.946L1250.19 510.53C1250.33 510.313 1250.46 510.224 1250.56 510.173C1250.69 510.111 1250.87 510.067 1251.07 510.076C1251.28 510.085 1251.45 510.145 1251.57 510.22C1251.67 510.28 1251.79 510.381 1251.91 510.609L1290.99 584.714C1291.11 584.953 1291.12 585.112 1291.12 585.225C1291.11 585.367 1291.06 585.547 1290.94 585.726Z" stroke="#EADDFF" stroke-width="18"/>
<path d="M1502.47 716.6C1502.63 716.458 1502.8 716.38 1502.94 716.349C1503.05 716.324 1503.2 716.311 1503.46 716.399L1566.24 737.956C1566.49 738.04 1566.61 738.144 1566.68 738.233C1566.77 738.341 1566.86 738.502 1566.9 738.704C1566.94 738.905 1566.92 739.086 1566.88 739.222C1566.85 739.332 1566.78 739.474 1566.59 739.647L1518.45 782.833C1518.26 783.005 1518.11 783.058 1518 783.08C1517.86 783.108 1517.67 783.104 1517.48 783.042C1517.28 782.979 1517.13 782.877 1517.03 782.774C1516.95 782.69 1516.86 782.561 1516.81 782.31L1502.16 717.565C1502.1 717.301 1502.13 717.145 1502.17 717.038C1502.21 716.903 1502.31 716.743 1502.47 716.6Z" stroke="#EADDFF" stroke-width="18"/>
<path d="M1443.9 168.529C1443.94 168.319 1444.02 168.154 1444.12 168.045C1444.19 167.958 1444.31 167.851 1444.56 167.765L1527.91 139.776C1528.16 139.694 1528.31 139.705 1528.43 139.729C1528.56 139.76 1528.73 139.834 1528.88 139.969C1529.04 140.104 1529.14 140.258 1529.19 140.391C1529.23 140.5 1529.26 140.654 1529.21 140.908L1513.47 225.107C1513.42 225.361 1513.34 225.493 1513.26 225.579C1513.17 225.686 1513.02 225.794 1512.83 225.864C1512.63 225.933 1512.45 225.944 1512.31 225.922C1512.2 225.904 1512.05 225.857 1511.85 225.692L1444.24 169.481C1444.03 169.308 1443.96 169.166 1443.93 169.059C1443.88 168.924 1443.86 168.739 1443.9 168.529Z" stroke="#EADDFF" stroke-width="18"/>
<ellipse cx="836.5" cy="552" rx="7.5" ry="7" fill="#EADDFF"/>
<ellipse cx="816.5" cy="514" rx="7.5" ry="7" fill="#EADDFF"/>
<ellipse cx="836.5" cy="514" rx="7.5" ry="7" fill="#EADDFF"/>
<ellipse cx="816.5" cy="552" rx="7.5" ry="7" fill="#EADDFF"/>
<ellipse cx="836.5" cy="533" rx="7.5" ry="7" fill="#EADDFF"/>
<ellipse cx="816.5" cy="533" rx="7.5" ry="7" fill="#EADDFF"/>
<ellipse cx="1230.5" cy="838" rx="7.5" ry="7" transform="rotate(90 1230.5 838)" fill="#EADDFF"/>
<ellipse cx="1268.5" cy="818" rx="7.5" ry="7" transform="rotate(90 1268.5 818)" fill="#EADDFF"/>
<ellipse cx="1268.5" cy="838" rx="7.5" ry="7" transform="rotate(90 1268.5 838)" fill="#EADDFF"/>
<ellipse cx="1230.5" cy="818" rx="7.5" ry="7" transform="rotate(90 1230.5 818)" fill="#EADDFF"/>
<ellipse cx="1249.5" cy="838" rx="7.5" ry="7" transform="rotate(90 1249.5 838)" fill="#EADDFF"/>
<ellipse cx="1249.5" cy="818" rx="7.5" ry="7" transform="rotate(90 1249.5 818)" fill="#EADDFF"/>
<ellipse cx="422.5" cy="345" rx="7.5" ry="7" transform="rotate(90 422.5 345)" fill="#EADDFF"/>
<ellipse cx="384.5" cy="345" rx="7.5" ry="7" transform="rotate(90 384.5 345)" fill="#EADDFF"/>
<ellipse cx="422.5" cy="325" rx="7.5" ry="7" transform="rotate(90 422.5 325)" fill="#EADDFF"/>
<ellipse cx="384.5" cy="325" rx="7.5" ry="7" transform="rotate(90 384.5 325)" fill="#EADDFF"/>
<ellipse cx="403.5" cy="345" rx="7.5" ry="7" transform="rotate(90 403.5 345)" fill="#EADDFF"/>
<ellipse cx="403.5" cy="325" rx="7.5" ry="7" transform="rotate(90 403.5 325)" fill="#EADDFF"/>
<ellipse cx="468.5" cy="904" rx="7.5" ry="7" fill="#EADDFF"/>
<ellipse cx="468.5" cy="942" rx="7.5" ry="7" fill="#EADDFF"/>
<ellipse cx="448.5" cy="904" rx="7.5" ry="7" fill="#EADDFF"/>
<ellipse cx="448.5" cy="942" rx="7.5" ry="7" fill="#EADDFF"/>
<ellipse cx="468.5" cy="923" rx="7.5" ry="7" fill="#EADDFF"/>
<ellipse cx="448.5" cy="923" rx="7.5" ry="7" fill="#EADDFF"/>
<ellipse cx="468.5" cy="904" rx="7.5" ry="7" fill="#EADDFF"/>
<ellipse cx="1354.5" cy="380" rx="7.5" ry="7" fill="#EADDFF"/>
<ellipse cx="1334.5" cy="342" rx="7.5" ry="7" fill="#EADDFF"/>
<ellipse cx="1334.5" cy="380" rx="7.5" ry="7" fill="#EADDFF"/>
<ellipse cx="1354.5" cy="361" rx="7.5" ry="7" fill="#EADDFF"/>
<ellipse cx="1334.5" cy="361" rx="7.5" ry="7" fill="#EADDFF"/>
<ellipse cx="1354.5" cy="342" rx="7.5" ry="7" fill="#EADDFF"/>
</svg>
